<?xml version="1.0" standalone="no"?>
<!DOCTYPE svg PUBLIC "-//W3C//DTD SVG 20010904//EN"
 "http://www.w3.org/TR/2001/REC-SVG-20010904/DTD/svg10.dtd">
<svg version="1.0" xmlns="http://www.w3.org/2000/svg"
 width="619.000000pt" height="403.000000pt" viewBox="0 0 619.000000 403.000000"
 preserveAspectRatio="xMidYMid meet">
<metadata>
Created by potrace 1.16, written by Peter Selinger 2001-2019
</metadata>
<g transform="translate(0.000000,403.000000) scale(0.100000,-0.100000)"
fill="#000000" stroke="none">
<path d="M3835 3931 c-16 -5 -55 -14 -85 -21 -126 -30 -289 -126 -396 -234
-163 -164 -254 -364 -254 -561 0 -73 2 -84 19 -90 21 -6 151 11 196 26 52 18
195 91 195 100 0 4 9 10 19 14 27 8 164 144 198 196 15 24 31 46 34 49 6 5 43
71 81 143 9 18 21 50 28 72 6 22 16 54 21 71 5 17 9 78 9 137 0 118 2 115 -65
98z"/>
<path d="M3745 3020 c-106 -12 -185 -31 -320 -80 -310 -111 -313 -112 -490
-45 -33 13 -76 28 -95 35 -19 7 -44 16 -55 20 -11 5 -31 11 -45 15 -14 3 -41
11 -60 16 -166 47 -258 49 -430 8 -293 -70 -555 -300 -674 -592 -88 -216 -118
-425 -97 -669 7 -79 16 -161 21 -183 5 -22 14 -67 20 -100 40 -198 105 -377
212 -590 28 -55 56 -110 62 -122 6 -13 14 -23 19 -23 4 0 7 -5 7 -10 0 -11
114 -185 134 -206 6 -6 27 -30 46 -55 180 -225 315 -324 476 -346 62 -8 234
30 331 73 18 8 77 29 130 46 90 29 109 32 233 32 101 0 148 -4 185 -17 28 -9
79 -26 115 -38 36 -12 70 -25 75 -29 6 -4 21 -10 35 -14 14 -4 50 -14 80 -23
38 -12 91 -17 170 -17 125 0 160 11 260 78 52 34 192 172 236 231 16 22 34 46
41 53 7 7 20 26 30 42 9 17 20 30 24 30 4 0 12 14 19 30 7 17 16 30 20 30 4 0
13 14 20 30 7 17 16 30 19 30 4 0 13 16 21 35 8 19 17 35 20 35 6 0 110 212
131 268 5 12 14 32 19 45 6 12 12 35 13 51 2 24 -5 33 -38 52 -22 14 -49 28
-60 33 -12 5 -43 26 -70 46 -306 229 -424 587 -313 950 18 59 83 184 120 230
55 68 154 162 197 186 23 12 41 26 41 31 0 4 7 8 15 8 22 0 19 13 -14 53 -102
129 -305 263 -451 299 -159 38 -274 49 -385 38z"/>
</g>
</svg>
